<svg width="353" height="74" viewBox="0 0 353 74" fill="none" xmlns="http://www.w3.org/2000/svg">
<g clip-path="url(#clip0_58_153)">
<rect x="0.889282" y="1.5451" width="352.117" height="72" fill="#F4E153"/>
<path d="M17.9624 45.4347L4.85207 73.2832L30.1017 57.2349L51.9523 73.2832V48.2668L71.3751 26.5545H43.6977L35.443 2.9541L21.3615 19.4743H0.967407L17.9624 45.4347Z" fill="#262626"/>
<path d="M88.3702 44.8613L75.2599 72.7097L100.51 56.6614L122.36 72.7097V47.6933L141.783 25.981H114.106L105.851 2.38062L91.7693 18.9009H71.3752L88.3702 44.8613Z" fill="#FF6F4F"/>
<path d="M299.186 44.2878L286.076 72.1362L311.326 56.0879L333.176 72.1362V47.1198L352.599 25.4075H324.922L316.667 1.80713L302.586 18.3274H282.192L299.186 44.2878Z" fill="#35BF16"/>
<path d="M229.186 43.7143L216.076 71.5627L241.325 55.5145L263.176 71.5627V46.5463L282.599 24.834H254.921L246.667 1.23364L232.585 17.7539H212.191L229.186 43.7143Z" fill="white"/>
<path d="M158.779 43.1408L145.668 70.9892L170.918 54.941L192.769 70.9892V45.9728L212.191 24.2605H184.514L176.259 0.660156L162.178 17.1804H141.784L158.779 43.1408Z" fill="#4DD4E7"/>
</g>
<defs>
<clipPath id="clip0_58_153">
<rect width="352.117" height="72.8849" fill="white" transform="translate(0.889282 0.660156)"/>
</clipPath>
</defs>
</svg>
